<svg xmlns="http://www.w3.org/2000/svg" viewBox="0 0 1732 140" width="1732" height="140" role="img" aria-label="NexPhase Labs" xmlns:c2pa="http://c2pa.org/manifest"><metadata><c2pa:manifest>AAAWgmp1bWIAAAAeanVtZGMycGEAEQAQgAAAqgA4m3EDYzJwYQAAABZcanVtYgAAAEdqdW1kYzJtYQARABCAAACqADibcQN1cm46YzJwYTo0OWI4ZDRiMC03ZmE3LTRkYjUtYjUzYy04NzBmODdkYzQwODUAAAADl2p1bWIAAAApanVtZGMyYXMAEQAQgAAAqgA4m3EDYzJwYS5hc3NlcnRpb25zAAAAALxqdW1iAAAARGp1bWRjYm9yABEAEIAAAKoAOJtxE2MycGEuaW5ncmVkaWVudC52MwAAAAAYYzJzaBynoE+IeDBlGTiR8lUtQyoAAABwY2JvcqNpZGM6Zm9ybWF0bWltYWdlL3N2Zyt4bWxqaW5zdGFuY2VJRHgseG1wOmlpZDpkMmM4NWM0OS01YmY4LTRlOWUtYmE4My0yMzM2NTA0MzJiYmRscmVsYXRpb25zaGlwaHBhcmVudE9mAAAB4mp1bWIAAABBanVtZGNib3IAEQAQgAAAqgA4m3ETYzJwYS5hY3Rpb25zLnYyAAAAABhjMnNoIBlrCyWTyC+6z/MuclwsiQAAAZljYm9yomdhY3Rpb25zgqJmYWN0aW9ua2MycGEub3BlbmVkanBhcmFtZXRlcnOha2luZ3JlZGllbnRzgaJjdXJseC1zZWxmI2p1bWJmPWMycGEuYXNzZXJ0aW9ucy9jMnBhLmluZ3JlZGllbnQudjNkaGFzaFggE/HKUhsvz/OVu/n2AD9Wepwwx6zBdc0Hp1YVES96sxakZmFjdGlvbngdY29tLmFudGhyb3BpYy5jbGF1ZGUucHJvdmlkZWRqcGFyYW1ldGVyc6F4H2NvbS5hbnRocm9waWMub3JpZ2luLWNvbmZpZGVuY2VndW5rbm93bmtkZXNjcmlwdGlvbnhmQ2xhdWRlIHByb3ZpZGVkIHRoaXMgZmlsZSBhdCB0aGUgcmVxdWVzdCBvZiBhIHVzZXIgYW5kIG1heSBoYXZlIGNyZWF0ZWQgb3IgbW9kaWZpZWQgdGhlIGZpbGUgY29udGVudHMubXNvZnR3YXJlQWdlbnShZG5hbWVmQ2xhdWRlcmFsbEFjdGlvbnNJbmNsdWRlZPUAAADIanVtYgAAAEBqdW1kY2JvcgARABCAAACqADibcRNjMnBhLmhhc2guZGF0YQAAAAAYYzJzaDu2fxOBGleQea+iqvO6GQIAAACAY2JvcqVjYWxnZnNoYTI1NmNwYWRNAAAAAAAAAAAAAAAAAGRoYXNoWCC4LkTgEdp58VBTrt+HINBVwpWJ+POW2U7WO8jTXoV1UGRuYW1lbmp1bWJmIG1hbmlmZXN0amV4Y2x1c2lvbnOBomVzdGFydBi+Zmxlbmd0aBkeBAAAAj5qdW1iAAAAJ2p1bWRjMmNsABEAEIAAAKoAOJtxA2MycGEuY2xhaW0udjIAAAACD2Nib3KlY2FsZ2ZzaGEyNTZpc2lnbmF0dXJleE1zZWxmI2p1bWJmPS9jMnBhL3VybjpjMnBhOjQ5YjhkNGIwLTdmYTctNGRiNS1iNTNjLTg3MGY4N2RjNDA4NS9jMnBhLnNpZ25hdHVyZWppbnN0YW5jZUlEeCx4bXA6aWlkOjMwMGMzMzA5LWNiZDMtNDdiZC1iYzE5LTc0NDVjZGVhMDUwOXJjcmVhdGVkX2Fzc2VydGlvbnODomN1cmx4LXNlbGYjanVtYmY9YzJwYS5hc3NlcnRpb25zL2MycGEuaW5ncmVkaWVudC52M2RoYXNoWCAT8cpSGy/P85W7+fYAP1Z6nDDHrMF1zQenVhURL3qzFqJjdXJseCpzZWxmI2p1bWJmPWMycGEuYXNzZXJ0aW9ucy9jMnBhLmFjdGlvbnMudjJkaGFzaFggoBQnr3cXNWdSJJYrY/SSJRD8lgQqmRvUiZ99+04Cl6uiY3VybHgpc2VsZiNqdW1iZj1jMnBhLmFzc2VydGlvbnMvYzJwYS5oYXNoLmRhdGFkaGFzaFggxo3Mshl7VAsQHkwDIl9B2ccL7gA5WS+ZJRxXctR7Cnl0Y2xhaW1fZ2VuZXJhdG9yX2luZm+jZG5hbWVvQW50aHJvcGljIEZpbGVzZ3ZlcnNpb25lMS4wLjBrc3BlY1ZlcnNpb25lMi40LjAAABA4anVtYgAAAChqdW1kYzJjcwARABCAAACqADibcQNjMnBhLnNpZ25hdHVyZQAAABAIY2JvctKEWQISogEmGCFZAgowggIGMIIBjaADAgECAhRA5aAK7sI50L64g/oGQgU9Z1UTADAKBggqhkjOPQQDAzBJMRcwFQYDVQQKEw5BbnRocm9waWMsIFBCQzEuMCwGA1UEAxMlQW50aHJvcGljIENvbnRlbnQgQ3JlZGVudGlhbHMgUm9vdCBDQTAeFw0yNjA4MDcxODQzNTZaFw0yODA4MDYxOTQzNTZaMEQxFzAVBgNVBAoTDkFudGhyb3BpYywgUEJDMSkwJwYDVQQDEyBBbnRocm9waWMgQ2xhdWRlIENvbnRlbnQgU2lnbmluZzBZMBMGByqGSM49AgEGCCqGSM49AwEHA0IABJh6CmvLUBgFFNU0vUKlOVtE6djd17L5SuwX0LemFisBM3dkd/3cyjxFA3Qo5S46fX0/ihY0VZ7mfb9KF703t5OjWDBWMA4GA1UdDwEB/wQEAwIHgDAVBgNVHSUEDjAMBgorBgEEAYPoXgIBMAwGA1UdEwEB/wQCMAAwHwYDVR0jBBgwFoAUzlHiBIFOZFsj+OPEz5o+nMHXXMIwCgYIKoZIzj0EAwMDZwAwZAIwMXMdFJ4BetLLVY7ORuE9noqbbAZOZn/aArXyTwFAZfKrPzxF2vPoJNf1+UCdg1XGAjBwX1zd9WGqYkqmL5SFqw1QySjr1zJfpJM9+1rdDwSPLMOPOjKuiXjoU/pUUeG9RwmhY3BhZFkNngAAAAAAAAAAAAAAAAAAAAAAAAAAAAAAAAAAAAAAAAAAAAAAAAAAAAAAAAAAAAAAAAAAAAAAAAAAAAAAAAAAAAAAAAAAAAAAAAAAAAAAAAAAAAAAAAAAAAAAAAAAAAAAAAAAAAAAAAAAAAAAAAAAAAAAAAAAAAAAAAAAAAAAAAAAAAAAAAAAAAAAAAAAAAAAAAAAAAAAAAAAAAAAAAAAAAAAAAAAAAAAAAAAAAAAAAAAAAAAAAAAAAAAAAAAAAAAAAAAAAAAAAAAAAAAAAAAAAAAAAAAAAAAAAAAAAAAAAAAAAAAAAAAAAAAAAAAAAAAAAAAAAAAAAAAAAAAAAAAAAAAAAAAAAAAAAAAAAAAAAAAAAAAAAAAAAAAAAAAAAAAAAAAAAAAAAAAAAAAAAAAAAAAAAAAAAAAAAAAAAAAAAAAAAAAAAAAAAAAAAAAAAAAAAAAAAAAAAAAAAAAAAAAAAAAAAAAAAAAAAAAAAAAAAAAAAAAAAAAAAAAAAAAAAAAAAAAAAAAAAAAAAAAAAAAAAAAAAAAAAAAAAAAAAAAAAAAAAAAAAAAAAAAAAAAAAAAAAAAAAAAAAAAAAAAAAAAAAAAAAAAAAAAAAAAAAAAAAAAAAAAAAAAAAAAAAAAAAAAAAAAAAAAAAAAAAAAAAAAAAAAAAAAAAAAAAAAAAAAAAAAAAAAAAAAAAAAAAAAAAAAAAAAAAAAAAAAAAAAAAAAAAAAAAAAAAAAAAAAAAAAAAAAAAAAAAAAAAAAAAAAAAAAAAAAAAAAAAAAAAAAAAAAAAAAAAAAAAAAAAAAAAAAAAAAAAAAAAAAAAAAAAAAAAAAAAAAAAAAAAAAAAAAAAAAAAAAAAAAAAAAAAAAAAAAAAAAAAAAAAAAAAAAAAAAAAAAAAAAAAAAAAAAAAAAAAAAAAAAAAAAAAAAAAAAAAAAAAAAAAAAAAAAAAAAAAAAAAAAAAAAAAAAAAAAAAAAAAAAAAAAAAAAAAAAAAAAAAAAAAAAAAAAAAAAAAAAAAAAAAAAAAAAAAAAAAAAAAAAAAAAAAAAAAAAAAAAAAAAAAAAAAAAAAAAAAAAAAAAAAAAAAAAAAAAAAAAAAAAAAAAAAAAAAAAAAAAAAAAAAAAAAAAAAAAAAAAAAAAAAAAAAAAAAAAAAAAAAAAAAAAAAAAAAAAAAAAAAAAAAAAAAAAAAAAAAAAAAAAAAAAAAAAAAAAAAAAAAAAAAAAAAAAAAAAAAAAAAAAAAAAAAAAAAAAAAAAAAAAAAAAAAAAAAAAAAAAAAAAAAAAAAAAAAAAAAAAAAAAAAAAAAAAAAAAAAAAAAAAAAAAAAAAAAAAAAAAAAAAAAAAAAAAAAAAAAAAAAAAAAAAAAAAAAAAAAAAAAAAAAAAAAAAAAAAAAAAAAAAAAAAAAAAAAAAAAAAAAAAAAAAAAAAAAAAAAAAAAAAAAAAAAAAAAAAAAAAAAAAAAAAAAAAAAAAAAAAAAAAAAAAAAAAAAAAAAAAAAAAAAAAAAAAAAAAAAAAAAAAAAAAAAAAAAAAAAAAAAAAAAAAAAAAAAAAAAAAAAAAAAAAAAAAAAAAAAAAAAAAAAAAAAAAAAAAAAAAAAAAAAAAAAAAAAAAAAAAAAAAAAAAAAAAAAAAAAAAAAAAAAAAAAAAAAAAAAAAAAAAAAAAAAAAAAAAAAAAAAAAAAAAAAAAAAAAAAAAAAAAAAAAAAAAAAAAAAAAAAAAAAAAAAAAAAAAAAAAAAAAAAAAAAAAAAAAAAAAAAAAAAAAAAAAAAAAAAAAAAAAAAAAAAAAAAAAAAAAAAAAAAAAAAAAAAAAAAAAAAAAAAAAAAAAAAAAAAAAAAAAAAAAAAAAAAAAAAAAAAAAAAAAAAAAAAAAAAAAAAAAAAAAAAAAAAAAAAAAAAAAAAAAAAAAAAAAAAAAAAAAAAAAAAAAAAAAAAAAAAAAAAAAAAAAAAAAAAAAAAAAAAAAAAAAAAAAAAAAAAAAAAAAAAAAAAAAAAAAAAAAAAAAAAAAAAAAAAAAAAAAAAAAAAAAAAAAAAAAAAAAAAAAAAAAAAAAAAAAAAAAAAAAAAAAAAAAAAAAAAAAAAAAAAAAAAAAAAAAAAAAAAAAAAAAAAAAAAAAAAAAAAAAAAAAAAAAAAAAAAAAAAAAAAAAAAAAAAAAAAAAAAAAAAAAAAAAAAAAAAAAAAAAAAAAAAAAAAAAAAAAAAAAAAAAAAAAAAAAAAAAAAAAAAAAAAAAAAAAAAAAAAAAAAAAAAAAAAAAAAAAAAAAAAAAAAAAAAAAAAAAAAAAAAAAAAAAAAAAAAAAAAAAAAAAAAAAAAAAAAAAAAAAAAAAAAAAAAAAAAAAAAAAAAAAAAAAAAAAAAAAAAAAAAAAAAAAAAAAAAAAAAAAAAAAAAAAAAAAAAAAAAAAAAAAAAAAAAAAAAAAAAAAAAAAAAAAAAAAAAAAAAAAAAAAAAAAAAAAAAAAAAAAAAAAAAAAAAAAAAAAAAAAAAAAAAAAAAAAAAAAAAAAAAAAAAAAAAAAAAAAAAAAAAAAAAAAAAAAAAAAAAAAAAAAAAAAAAAAAAAAAAAAAAAAAAAAAAAAAAAAAAAAAAAAAAAAAAAAAAAAAAAAAAAAAAAAAAAAAAAAAAAAAAAAAAAAAAAAAAAAAAAAAAAAAAAAAAAAAAAAAAAAAAAAAAAAAAAAAAAAAAAAAAAAAAAAAAAAAAAAAAAAAAAAAAAAAAAAAAAAAAAAAAAAAAAAAAAAAAAAAAAAAAAAAAAAAAAAAAAAAAAAAAAAAAAAAAAAAAAAAAAAAAAAAAAAAAAAAAAAAAAAAAAAAAAAAAAAAAAAAAAAAAAAAAAAAAAAAAAAAAAAAAAAAAAAAAAAAAAAAAAAAAAAAAAAAAAAAAAAAAAAAAAAAAAAAAAAAAAAAAAAAAAAAAAAAAAAAAAAAAAAAAAAAAAAAAAAAAAAAAAAAAAAAAAAAAAAAAAAAAAAAAAAAAAAAAAAAAAAAAAAAAAAAAAAAAAAAAAAAAAAAAAAAAAAAAAAAAAAAAAAAAAAAAAAAAAAAAAAAAAAAAAAAAAAAAAAAAAAAAAAAAAAAAAAAAAAAAAAAAAAAAAAAAAAAAAAAAAAAAAAAAAAAAAAAAAAAAAAAAAAAAAAAAAAAAAAAAAAAAAAAAAAAAAAAAAAAAAAAAAAAAAAAAAAAAAAAAAAAAAAAAAAAAAAAAAAAAAAAAAAAAAAAAAAAAAAAAAAAAAAAAAAAAAAAAAAAAAAAAAAAAAAAAAAAAAAAAAAAAAAAAAAAAAAAAAAAAAAAAAAAAAAAAAAAAAAAAAAAAAAAAAAAAAAAAAAAAAAAAAAAAAAAAAAAAAAAAAAAAAAAAAAAAAAAAAAAAAAAAAAAAAAAAAAAAAAAAAAAAAAAAAAAAAAAAAAAAAAAAAAAAAAAAAAAAAAAAAAAAAAAAAAAAAAAAAAAAAAAAAAAAAAAAAAAAAAAAAAAAAAAAAAAAAAAAAAAAAAAAAAAAAAAAAAAAAAAAAAAAAAAAAAAAAAAAAAAAAAAAAAAAAAAAAAAAAAAAAAAAAAAAAAAAAAAAAAAAAAAAAAAAAAAAAAAAAAAAAAAAAAAAAAAAAAAAAAAAAAAAAAAAAAAAAAAAAAAAAAAAAAAAAAAAAAAAAAAAAAAAAAAAAAAAAAAAAAAAAAAAAAAAAAAAAAAAAAAAAAAAAAAAAAAAAAAAAAAAAAAAAAAAAAAAAAAAAAAAAAAAAAAAAAAAAAAAAAAAAAAAAAAAAAAAAAAAAAAAAAAAAAAAAAAAAAAAAAAAAAAAAAAAAAAAAAAAAAAAAAAAAAAAAAAAAAAAAAAAAAAAAAAAAAAAAAAAAAAAAAAAAAAAAAAAAAAAAAAAAAAAAAAAAAAAAAAAAAAAAAAAAAAAAAAAAAAAAAAAAAAAAAAAAAAAAAAAAAAAAAAAAAAAAAAAAAAAAAAAAAAAAAAAAAAAAAAAAAAAAAAAAAAAAAAAAAAAAAAAAAAAAAAAAAAAAAAAAAAAAAAAAAAAAAAAAAAAAAAAAAAAAAAAAAAAAAAAAAAAAAAAAAAAAAAAAAAAAAAAAAAAAAAAAAAAAAAAAAAAAAAAAAAAAAAAAAAAAAAAAAAAAAAAAAAAAAAAAAAAAAAAAAAAAAAAAAAAAAAAAAAAAAAAAAAAAAAAAAAAAAAAAAAAAAAAAAAAAAAAAAAAAAAAAAAAAAAAAAAAAAAAAAAAAAAAAAAAAAAAAAAAAAAAAAAAAAAAAAAAAAAAAAAAAAAAAAAAAAAAAAAAAAAAAAAAAAAAAAAAAAAAAAAAAAAAAAAAAAAAAAAAAAAAAAAAAAAAAAAAAAAAAAAAAAAAAAAAAAAAAAAAAAAAAAAAAAAAAAAAAAAAAAAAAAAAAAAAAAAAAAAAAAAAAAAAAAAAAAAAAAAAAAAAAAAAAAAAAAAAAAAAAAAAAAAAAAAAAAAAAAAAAAAAAAAAAAAAAAAAAAAAAAAAAAAAAAAAAAAAAAAAAAAAAAAAAAAAAAAAAAAAAAAAAAAAAAAAAAAAAAAAAAAAAAAAAAAAAAAAAAAAAAAAAAAAAAAAAAAAAAAAAAAAAAAAAAAAAAAAAAAAAAAAAAAAAAAAAAAAAAAAAAAAAAAAAAAAAAAAAAAAAAAAAAAAAAAAAAAAAAAAAAAAAAAPZYQDPfTnesIoEVsUFu2GMOKii1Y1vdtnajPTeV3oXpapIGuJX/ki3EHboXORj0zHvG+kCYHpQSHvndErrCQE9kyPo=</c2pa:manifest></metadata><title>NexPhase Labs</title><path fill="#0E123B" d="M668,64L668,137.50L668.33,138.75L669.25,139.67L670.50,140L697.50,140L698.75,139.67L699.67,138.75L700,137.50L700,55.04L699.81,54.08L699.27,53.27L682.73,36.73L681.92,36.19L680.96,36L659,36L659,64ZM804,72L726.50,72L725.25,72.33L724.33,73.25L724,74.50L724,122.96L724.19,123.92L724.73,124.73L739.27,139.27L741.04,140L829.50,140L830.75,139.67L831.67,138.75L832,137.50L832,55.04L831.81,54.08L831.27,53.27L814.73,36.73L813.92,36.19L812.96,36L726.50,36L725.25,36.33L724.33,37.25L724,38.50L724,61.50L724.33,62.75L725.25,63.67L726.50,64L804,64ZM756,112L756,100L804,100L804,112ZM1580.96,140L1581.92,139.81L1582.73,139.27L1599.27,122.73L1600,120.96L1600,55.04L1599.81,54.08L1599.27,53.27L1582.73,36.73L1581.92,36.19L1580.96,36L1520,36L1520,2.50L1519.67,1.25L1518.75,0.33L1517.50,0L1494.50,0L1493.25,0.33L1492.33,1.25L1492,2.50L1492,137.50L1492.33,138.75L1493.25,139.67L1494.50,140ZM1568,112L1520,112L1520,64L1568,64ZM1204.33,138.75L1205.25,139.67L1206.50,140L1333.50,140L1334.75,139.67L1335.67,138.75L1336,137.50L1336,114.50L1335.67,113.25L1334.75,112.33L1333.50,112L1236,112L1236,10.50L1235.67,9.25L1234.75,8.33L1233.50,8L1206.50,8L1205.25,8.33L1204.33,9.25L1204,10.50L1204,137.50ZM860,53.04L860,82.96L860.73,84.73L879.27,103.27L880.08,103.81L881.04,104L936,104L936,112L888,112L888,110.50L887.67,109.25L886.75,108.33L885.50,108L862.50,108L861.25,108.33L860.33,109.25L860,110.50L860,122.96L860.19,123.92L860.73,124.73L875.27,139.27L877.04,140L948.96,140L949.92,139.81L950.73,139.27L967.27,122.73L968,120.96L968,93.04L967.27,91.27L948.73,72.73L947.92,72.19L946.96,72L888,72L888,64L936,64L936,65.50L936.33,66.75L937.25,67.67L938.50,68L965.50,68L966.75,67.67L967.67,66.75L968,65.50L968,55.04L967.81,54.08L967.27,53.27L950.73,36.73L949.92,36.19L948.96,36L877.04,36L876.08,36.19L875.27,36.73L860.73,51.27L860.19,52.08ZM992.73,127.73L1004.27,139.27L1005.08,139.81L1006.04,140L1095.50,140L1096.75,139.67L1097.67,138.75L1098,137.50L1098,114.50L1097.67,113.25L1096.75,112.33L1095.50,112L1020,112L1020,104L1095.50,104L1096.75,103.67L1097.67,102.75L1098,101.50L1098,50.04L1097.81,49.08L1097.27,48.27L1085.73,36.73L1084.92,36.19L1083.96,36L1006.04,36L1005.08,36.19L1004.27,36.73L992.73,48.27L992.19,49.08L992,50.04L992,125.96ZM1069,76L1020,76L1020,64L1069,64ZM1436,72L1358.50,72L1357.25,72.33L1356.33,73.25L1356,74.50L1356,122.96L1356.19,123.92L1356.73,124.73L1371.27,139.27L1373.04,140L1461.50,140L1462.75,139.67L1463.67,138.75L1464,137.50L1464,55.04L1463.81,54.08L1463.27,53.27L1446.73,36.73L1445.92,36.19L1444.96,36L1358.50,36L1357.25,36.33L1356.33,37.25L1356,38.50L1356,61.50L1356.33,62.75L1357.25,63.67L1358.50,64L1436,64ZM1388,112L1388,100L1436,100L1436,112ZM1624,53.04L1624,82.96L1624.73,84.73L1643.27,103.27L1644.08,103.81L1645.04,104L1700,104L1700,112L1652,112L1652,110.50L1651.67,109.25L1650.75,108.33L1649.50,108L1626.50,108L1625.25,108.33L1624.33,109.25L1624,110.50L1624,122.96L1624.19,123.92L1624.73,124.73L1639.27,139.27L1641.04,140L1712.96,140L1713.92,139.81L1714.73,139.27L1731.27,122.73L1732,120.96L1732,93.04L1731.27,91.27L1712.73,72.73L1711.92,72.19L1710.96,72L1652,72L1652,64L1700,64L1700,65.50L1700.33,66.75L1701.25,67.67L1702.50,68L1729.50,68L1730.75,67.67L1731.67,66.75L1732,65.50L1732,55.04L1731.81,54.08L1731.27,53.27L1714.73,36.73L1713.92,36.19L1712.96,36L1641.04,36L1640.08,36.19L1639.27,36.73L1624.73,51.27L1624.19,52.08Z"/><path fill="#56CFFC" d="M592,137.50L592.33,138.75L593.25,139.67L594.50,140L617.50,140L618.75,139.67L619.67,138.75L620,137.50L620,64L660,64L660,36L620,36L620,2.50L619.67,1.25L618.75,0.33L617.50,0L594.50,0L593.25,0.33L592.33,1.25L592,2.50ZM1.25,8.33L0.33,9.25L0,10.50L0,137.50L0.33,138.75L1.25,139.67L2.50,140L29.50,140L30.75,139.67L31.67,138.75L32,137.50L32,59L100.10,139.12L100.96,139.77L102.01,140L129.50,140L130.75,139.67L131.67,138.75L132,137.50L132,10.50L131.67,9.25L130.75,8.33L129.50,8L102.50,8L101.25,8.33L100.33,9.25L100,10.50L100,91L32,11L32,10.50L31.67,9.25L30.75,8.33L29.50,8L2.50,8ZM462.75,139.67L463.67,138.75L464,137.50L464,100L543.96,100L545.73,99.27L566.27,78.73L567,76.96L567,29.04L566.81,28.08L566.27,27.27L547.73,8.73L546.92,8.19L545.96,8L438.50,8L437.25,8.33L436.33,9.25L436,10.50L436,137.50L436.33,138.75L437.25,139.67L438.50,140L461.50,140ZM464,68L464,40L535,40L535,68ZM164.73,127.73L176.27,139.27L177.08,139.81L178.04,140L267.50,140L268.75,139.67L269.67,138.75L270,137.50L270,114.50L269.67,113.25L268.75,112.33L267.50,112L192,112L192,104L267.50,104L268.75,103.67L269.67,102.75L270,101.50L270,50.04L269.81,49.08L269.27,48.27L257.73,36.73L256.92,36.19L255.96,36L178.04,36L177.08,36.19L176.27,36.73L164.73,48.27L164.19,49.08L164,50.04L164,125.96ZM241,76L192,76L192,64L241,64ZM296.60,47.52L331,88L296.60,128.48L296,130.10L296,137.50L296.33,138.75L297.25,139.67L298.50,140L326.84,140L327.89,139.77L328.75,139.11L350,113.88L371.25,139.11L372.11,139.77L373.16,140L401.50,140L402.75,139.67L403.67,138.75L404,137.50L404,130.10L403.40,128.48L369,88L403.40,47.52L404,45.90L404,38.50L403.67,37.25L402.75,36.33L401.50,36L373.16,36L372.11,36.23L371.25,36.89L350,62.12L328.75,36.89L327.89,36.23L326.84,36L298.50,36L297.25,36.33L296.33,37.25L296,38.50L296,45.90Z"/></svg>
